<?xml version="1.0" standalone="no"?>
<!DOCTYPE svg PUBLIC "-//W3C//DTD SVG 20010904//EN"
 "http://www.w3.org/TR/2001/REC-SVG-20010904/DTD/svg10.dtd">
<svg version="1.0" xmlns="http://www.w3.org/2000/svg"
 width="800.000000pt" height="800.000000pt" viewBox="0 0 800.000000 800.000000"
 preserveAspectRatio="xMidYMid meet">
<metadata>
Created by potrace 1.11, written by Peter Selinger 2001-2013
</metadata>
<g transform="translate(0.000000,800.000000) scale(0.100000,-0.100000)"
fill="#000000" stroke="none">
<path d="M638 6287 l642 -642 0 -473 0 -472 430 0 430 0 0 35 c0 19 3 35 8 35
4 0 238 -231 520 -513 l512 -512 0 -468 0 -467 434 0 435 0 3 30 c3 29 32 1
516 -483 l512 -512 20 -81 c39 -163 105 -286 212 -392 153 -151 328 -232 613
-284 125 -22 150 -23 615 -23 465 0 490 1 614 23 480 87 748 314 828 702 17
82 19 122 15 290 -4 172 -8 206 -31 290 -39 137 -85 248 -201 480 -57 113
-115 237 -128 277 -56 155 -69 308 -41 458 61 334 66 373 68 515 1 170 -17
246 -82 345 -48 73 -79 103 -156 149 -152 91 -356 134 -722 151 l-142 7 -1082
1089 -1082 1089 -2201 0 -2202 0 643 -643z m4051 119 l364 -364 -54 10 c-90
17 -252 4 -344 -26 -223 -75 -391 -273 -441 -516 -48 -241 25 -488 195 -660
74 -75 143 -117 246 -152 62 -20 89 -23 230 -23 138 0 170 3 230 22 99 31 189
87 265 164 59 59 140 178 140 204 0 6 -33 27 -74 47 l-74 37 -42 -65 c-86
-130 -206 -211 -362 -242 -107 -21 -202 -8 -301 41 -156 77 -256 226 -282 420
l-6 47 597 0 596 0 -6 58 c-4 31 -9 75 -12 97 -6 39 11 24 473 -437 l478 -476
220 -11 c482 -23 682 -100 756 -290 40 -102 29 -315 -32 -611 -30 -140 -35
-294 -15 -410 26 -146 67 -255 196 -515 65 -132 132 -278 148 -325 59 -169 80
-339 63 -495 -23 -202 -73 -324 -177 -435 -127 -134 -287 -209 -548 -257 -113
-21 -851 -30 -1025 -13 -503 49 -785 254 -842 611 l-12 74 -934 935 -933 935
0 403 0 402 -95 0 -95 0 0 -307 0 -308 -360 360 -360 360 45 3 45 3 0 665 0
664 -90 0 -90 0 0 -622 0 -623 -450 450 -450 450 0 402 0 403 -100 0 -100 0
-2 -300 -3 -300 -440 440 -440 440 1970 0 1970 0 364 -364z"/>
<path d="M2395 6550 c-52 -26 -79 -71 -78 -132 1 -82 60 -138 145 -138 89 0
144 63 136 157 -5 60 -31 96 -85 119 -44 19 -71 18 -118 -6z"/>
<path d="M2774 6008 c3 -13 138 -311 300 -663 257 -558 298 -640 318 -643 21
-2 46 49 318 644 162 356 298 655 302 665 7 18 1 19 -90 19 l-97 0 -215 -475
c-118 -260 -218 -471 -221 -467 -3 4 -102 217 -220 474 l-214 468 -94 0 c-92
0 -93 0 -87 -22z"/>
<path d="M4775 4150 c-229 -49 -436 -238 -508 -465 -19 -59 -22 -93 -22 -220
0 -127 3 -161 22 -220 33 -102 87 -189 178 -281 64 -65 97 -89 165 -122 217
-106 505 -92 692 31 133 88 253 255 294 407 24 89 24 281 0 370 -61 222 -225
402 -438 478 -63 22 -92 26 -208 28 -74 2 -153 -1 -175 -6z"/>
<path d="M6364 4140 c-240 -63 -426 -249 -491 -490 -23 -87 -23 -262 0 -349
63 -233 247 -414 487 -477 86 -22 253 -23 340 0 98 24 217 87 288 151 l62 57
0 -65 c0 -101 -19 -217 -45 -274 -45 -99 -157 -183 -292 -218 -74 -19 -258
-19 -341 0 -116 28 -227 103 -282 194 l-25 40 -99 1 c-113 0 -110 9 -44 -108
126 -220 353 -324 678 -309 138 7 214 24 305 69 123 61 198 135 259 255 59
119 59 117 63 846 l4 667 -90 0 -91 0 0 -106 0 -106 -76 71 c-82 77 -178 130
-279 156 -83 21 -242 19 -331 -5z m214 -658 l2 -512 -35 0 -35 0 0 509 0 510
23 4 c12 2 27 3 32 2 6 -1 11 -182 13 -513z m90 502 l22 -6 0 -499 c0 -485 -1
-499 -19 -499 -11 0 -26 -3 -35 -6 -14 -6 -16 43 -16 505 0 402 3 511 13 511
6 0 22 -3 35 -6z m-208 -504 c0 -486 -1 -500 -19 -500 -54 0 -51 -27 -51 500
0 519 -2 497 48 499 l22 1 0 -500z m320 465 l30 -16 0 -453 0 -454 -31 -11
c-18 -6 -34 -11 -35 -11 -2 0 -4 216 -4 480 0 264 2 480 5 480 4 0 19 -7 35
-15z m-430 -466 l0 -471 -27 7 c-55 13 -53 -5 -53 461 l0 434 33 20 c17 11 35
20 40 20 4 0 7 -212 7 -471z m574 367 c88 -88 146 -236 146 -371 0 -68 -24
-176 -54 -240 -24 -54 -131 -175 -154 -175 -9 0 -12 100 -12 420 0 267 4 420
10 420 5 0 34 -24 64 -54z m-699 -774 c-3 -3 -25 13 -48 36 -191 188 -195 512
-9 714 l57 61 3 -403 c1 -222 0 -405 -3 -408z"/>
</g>
</svg>
